<svg width="789" height="694" viewBox="0 0 789 694" fill="none" xmlns="http://www.w3.org/2000/svg">
<path d="M78.8256 438.25L0 480.738L394.325 693.281L788.65 480.738L709.566 438.111L662.413 463.527L694.343 480.738L394.325 642.449L94.3071 480.738L125.448 463.953L78.8256 438.25Z" fill="#2C6AFA"/>
<path d="M295.91 321.274L342.917 346.546L171.677 439.034L124.523 413.618L295.91 321.274Z" fill="#2C6AFA"/>
<path d="M493.059 321.135L446.005 346.64L617.415 439.034L664.568 413.618L493.059 321.135Z" fill="#2C6AFA"/>
<path d="M0 347.07L394.325 559.613L788.65 347.07L709.566 304.444L662.413 329.86L694.343 347.07L394.325 508.781L94.3071 347.07L125.448 330.285L78.8256 304.583L0 347.07Z" fill="#2C6AFA"/>
<path d="M394.627 134.412L663.822 279.761L616.683 305.184L394.328 185.359L394.627 134.412Z" fill="#2C6AFA"/>
<path d="M394.626 134.412L125.158 279.715L172.298 305.139L394.996 185.103L394.626 134.412Z" fill="#2C6AFA"/>
<path fill-rule="evenodd" clip-rule="evenodd" d="M394.325 425.086L0 212.543L394.325 0L788.65 212.543L394.325 425.086ZM394.325 374.254L94.3071 212.543L394.325 50.832L694.343 212.543L394.325 374.254Z" fill="#2C6AFA"/>
</svg>
