<svg width="3200" height="694" viewBox="0 0 3200 694" fill="none" xmlns="http://www.w3.org/2000/svg">
<path d="M78.8256 438.25L0 480.738L394.325 693.281L788.65 480.738L709.566 438.111L662.413 463.527L694.343 480.738L394.325 642.449L94.3071 480.738L125.448 463.952L78.8256 438.25Z" fill="url(#paint0_linear)"/>
<path d="M295.91 321.274L342.917 346.546L171.677 439.034L124.523 413.618L295.91 321.274Z" fill="url(#paint1_linear)"/>
<path d="M493.059 321.135L446.006 346.639L617.415 439.034L664.569 413.618L493.059 321.135Z" fill="url(#paint2_linear)"/>
<path d="M0 347.07L394.325 559.613L788.65 347.07L709.566 304.444L662.413 329.86L694.343 347.07L394.325 508.781L94.3071 347.07L125.448 330.285L78.8256 304.583L0 347.07Z" fill="url(#paint3_linear)"/>
<path d="M394.626 134.412L663.821 279.761L616.682 305.184L394.327 185.359L394.626 134.412Z" fill="url(#paint4_linear)"/>
<path d="M394.625 134.412L125.157 279.715L172.297 305.139L394.995 185.103L394.625 134.412Z" fill="url(#paint5_linear)"/>
<path fill-rule="evenodd" clip-rule="evenodd" d="M394.325 425.086L0 212.543L394.325 0L788.65 212.543L394.325 425.086ZM394.325 374.254L94.3071 212.543L394.325 50.832L694.343 212.543L394.325 374.254Z" fill="url(#paint6_linear)"/>
<path d="M1331.17 468.171H1291.01V440.494C1280.61 462.092 1261.25 471.85 1237.74 471.85C1196.62 471.85 1176.3 442.094 1176.3 394.419V303.07H1216.46V394.099C1216.46 420.816 1226.86 436.494 1248.45 436.494C1267.01 436.494 1290.85 421.136 1290.85 374.422V303.07H1331.17V468.171Z" fill="white"/>
<path d="M1373.72 468.172V232.199H1413.88V468.172H1373.72Z" fill="white"/>
<path d="M1460.59 468.172V221H1500.75V468.172H1460.59Z" fill="white"/>
<path d="M1571.94 401.3C1576.9 420.818 1594.5 434.896 1619.29 434.896C1643.13 434.896 1660.41 424.177 1660.41 405.779C1660.41 392.341 1650.65 382.582 1630.33 375.383L1600.9 365.304C1552.9 349.306 1544.74 320.189 1544.74 300.991C1544.74 260.836 1578.66 236.039 1620.41 236.039C1658.65 236.039 1685.69 255.877 1696.09 288.353L1660.89 303.071C1653.05 279.874 1637.05 273.315 1620.41 273.315C1601.86 273.315 1586.5 282.433 1586.5 300.351C1586.5 308.191 1588.74 319.869 1613.53 328.828L1642.97 339.547C1687.45 353.625 1701.37 381.622 1701.69 404.179C1701.69 448.174 1664.09 471.692 1620.09 471.692C1575.3 471.692 1540.1 446.575 1533.86 409.619L1571.94 401.3Z" fill="white"/>
<path d="M2021.49 303.07V468.331H1981.33V443.374C1969.65 461.292 1949.02 471.851 1924.86 471.851C1875.91 471.851 1843.91 433.295 1843.91 384.981C1843.91 338.266 1874.63 299.39 1925.18 299.39C1947.42 299.39 1967.9 308.509 1981.33 327.387V303.07H2021.49ZM1933.02 438.254C1960.38 438.254 1982.29 419.697 1982.29 387.06C1982.29 355.064 1961.66 333.147 1932.06 333.147C1901.66 333.147 1884.38 356.984 1884.38 385.301C1884.38 414.737 1902.94 438.254 1933.02 438.254Z" fill="white"/>
<path d="M2651.82 431.696V468.172H2506.24V230.919H2547.99V431.696H2651.82Z" fill="white"/>
<path d="M2839.8 303.07V468.331H2799.64V443.374C2787.96 461.292 2767.33 471.851 2743.17 471.851C2694.21 471.851 2662.22 433.295 2662.22 384.981C2662.22 338.266 2692.93 299.39 2743.49 299.39C2765.73 299.39 2786.2 308.509 2799.64 327.387V303.07H2839.8ZM2751.33 438.254C2778.68 438.254 2800.6 419.697 2800.6 387.06C2800.6 355.064 2779.96 333.147 2750.37 333.147C2719.97 333.147 2702.69 356.984 2702.69 385.301C2702.69 414.737 2721.25 438.254 2751.33 438.254Z" fill="white"/>
<path d="M2973.7 471.851C2949.55 471.851 2928.91 461.452 2917.23 443.374V468.172H2877.07V232.199H2917.23V327.548C2930.67 308.67 2951.15 299.551 2973.38 299.551C3023.94 299.551 3054.65 338.427 3054.65 385.141C3054.65 433.296 3022.66 471.851 2973.7 471.851ZM2966.5 333.147C2936.75 333.147 2916.59 355.065 2916.59 387.061C2916.59 419.697 2938.19 438.255 2965.54 438.255C2995.62 438.255 3014.18 414.738 3014.18 385.301C3014.18 356.984 2996.9 333.147 2966.5 333.147Z" fill="white"/>
<path d="M3100.09 415.698C3104.41 432.016 3120.41 439.535 3135.29 439.535C3146.96 439.535 3160.08 435.215 3160.08 422.257C3160.08 413.778 3152.24 408.818 3142.16 404.659L3118.01 395.54C3085.05 383.061 3076.57 364.504 3076.57 349.465C3076.57 318.749 3102.65 299.551 3137.05 299.551C3158 299.551 3184.08 306.75 3194.8 336.507L3162.48 348.185C3158.16 334.747 3146.16 331.227 3137.37 331.227C3126.97 331.227 3115.77 337.147 3115.77 348.505C3115.77 357.624 3123.93 362.264 3133.05 365.463L3157.52 374.262C3192.72 385.941 3199.6 407.219 3199.6 421.617C3199.6 454.253 3169.2 471.851 3134.97 471.851C3108.25 471.851 3077.85 460.813 3068.41 429.136L3100.09 415.698Z" fill="white"/>
<path d="M1794.47 438.255C1782.8 438.255 1778.48 430.416 1778.48 420.337V333.787H1827.75V303.07H1778.48V258.916H1747.44L1740.24 302.91H1712.56V333.627H1738.32V414.578C1738.32 460.012 1765.36 471.691 1792.87 471.691C1809.35 471.691 1821.83 467.052 1830.31 459.692L1815.75 433.136C1815.75 433.136 1804.39 438.255 1794.47 438.255Z" fill="white"/>
<path d="M1024 232.199V468.172H1065.76V365.463H1108.95L1143.51 330.907H1065.76V268.995H1167.66V232.199H1024Z" fill="white"/>
<path d="M2168.51 407.059C2162.43 425.617 2146.44 434.896 2128.04 434.896C2102.92 434.896 2084.2 414.738 2084.2 384.662C2084.2 354.585 2102.92 334.427 2128.04 334.427C2147.4 334.427 2163.87 343.706 2168.51 362.264H2211.07C2204.83 323.389 2171.39 297.632 2128.04 297.632C2079.88 297.632 2044.05 333.467 2044.05 384.662C2044.05 435.856 2079.88 471.692 2128.04 471.692C2171.39 471.692 2205.15 446.095 2211.23 407.059H2168.51V407.059Z" fill="white"/>
<path d="M2379.03 468.172L2313.3 378.742L2370.73 307.87V302.911H2326.26L2274.42 366.423V232.199H2234.27V468.172H2274.42V388.181L2332.32 468.172H2379.03Z" fill="white"/>
<defs>
<linearGradient id="paint0_linear" x1="394.518" y1="139.148" x2="394.518" y2="693.699" gradientUnits="userSpaceOnUse">
<stop offset="0.486338" stop-color="#092D82"/>
<stop offset="0.663343" stop-color="#2C6AFA"/>
<stop offset="0.79755" stop-color="#2C6AFA"/>
<stop offset="1" stop-color="#6593FF"/>
</linearGradient>
<linearGradient id="paint1_linear" x1="172.796" y1="439.454" x2="249.111" y2="283.81" gradientUnits="userSpaceOnUse">
<stop stop-color="#092D82"/>
<stop offset="1" stop-color="#2C6AFA"/>
</linearGradient>
<linearGradient id="paint2_linear" x1="616.296" y1="439.454" x2="539.981" y2="283.81" gradientUnits="userSpaceOnUse">
<stop stop-color="#092D82"/>
<stop offset="1" stop-color="#2C6AFA"/>
</linearGradient>
<linearGradient id="paint3_linear" x1="394.518" y1="5.48072" x2="394.518" y2="560.031" gradientUnits="userSpaceOnUse">
<stop offset="0.486338" stop-color="#092D82"/>
<stop offset="0.663343" stop-color="#2C6AFA"/>
<stop offset="0.79755" stop-color="#2C6AFA"/>
<stop offset="1" stop-color="#6593FF"/>
</linearGradient>
<linearGradient id="paint4_linear" x1="622.718" y1="304.928" x2="498.156" y2="141.502" gradientUnits="userSpaceOnUse">
<stop stop-color="#092D82"/>
<stop offset="1" stop-color="#2C6AFA"/>
</linearGradient>
<linearGradient id="paint5_linear" x1="166.128" y1="304.929" x2="290.69" y2="141.503" gradientUnits="userSpaceOnUse">
<stop stop-color="#092D82"/>
<stop offset="1" stop-color="#2C6AFA"/>
</linearGradient>
<linearGradient id="paint6_linear" x1="394.325" y1="0" x2="394.325" y2="425.086" gradientUnits="userSpaceOnUse">
<stop stop-color="#2C6AFA"/>
<stop offset="0.641554" stop-color="#2C6AFA"/>
<stop offset="1" stop-color="#6593FF"/>
</linearGradient>
</defs>
</svg>
