<svg width="2176" height="251" viewBox="0 0 2176 251" fill="none" xmlns="http://www.w3.org/2000/svg">
<path d="M307.166 247.171H267.01V219.494C256.611 241.092 237.253 250.85 213.736 250.85C172.621 250.85 152.303 221.094 152.303 173.419V82.0698H192.458V173.099C192.458 199.816 202.857 215.494 224.455 215.494C243.013 215.494 266.85 200.136 266.85 153.422V82.0698H307.166V247.171Z" fill="white"/>
<path d="M349.722 247.172V11.1987H389.877V247.172H349.722Z" fill="white"/>
<path d="M436.591 247.172V0H476.746V247.172H436.591Z" fill="white"/>
<path d="M547.939 180.3C552.899 199.818 570.497 213.896 595.294 213.896C619.131 213.896 636.409 203.177 636.409 184.779C636.409 171.341 626.65 161.582 606.333 154.383L576.896 144.304C528.901 128.306 520.742 99.1891 520.742 79.9913C520.742 39.836 554.658 15.0388 596.414 15.0388C634.649 15.0388 661.686 34.8765 672.085 67.3528L636.889 82.0711C629.05 58.8738 613.052 52.3145 596.414 52.3145C577.856 52.3145 562.497 61.4335 562.497 79.3514C562.497 87.1905 564.737 98.8692 589.534 107.828L618.971 118.547C663.446 132.625 677.365 160.622 677.685 183.179C677.685 227.174 640.089 250.692 596.094 250.692C551.299 250.692 516.103 225.575 509.863 188.619L547.939 180.3Z" fill="white"/>
<path d="M997.489 82.07V247.331H957.334V222.374C945.655 240.292 925.017 250.851 900.86 250.851C851.906 250.851 819.909 212.295 819.909 163.981C819.909 117.266 850.626 78.3904 901.18 78.3904C923.418 78.3904 943.895 87.5093 957.334 106.387V82.07H997.489ZM909.019 217.254C936.376 217.254 958.294 198.697 958.294 166.06C958.294 134.064 937.656 112.147 908.059 112.147C877.663 112.147 860.385 135.984 860.385 164.301C860.385 193.737 878.943 217.254 909.019 217.254Z" fill="white"/>
<path d="M1627.82 210.696V247.172H1482.24V9.91919H1523.99V210.696H1627.82Z" fill="white"/>
<path d="M1815.8 82.07V247.331H1775.64V222.374C1763.96 240.292 1743.33 250.851 1719.17 250.851C1670.21 250.851 1638.22 212.295 1638.22 163.981C1638.22 117.266 1668.93 78.3904 1719.49 78.3904C1741.73 78.3904 1762.2 87.5093 1775.64 106.387V82.07H1815.8ZM1727.33 217.254C1754.68 217.254 1776.6 198.697 1776.6 166.06C1776.6 134.064 1755.96 112.147 1726.37 112.147C1695.97 112.147 1678.69 135.984 1678.69 164.301C1678.69 193.737 1697.25 217.254 1727.33 217.254Z" fill="white"/>
<path d="M1949.7 250.851C1925.55 250.851 1904.91 240.452 1893.23 222.374V247.172H1853.07V11.1987H1893.23V106.548C1906.67 87.6699 1927.15 78.551 1949.38 78.551C1999.94 78.551 2030.65 117.427 2030.65 164.141C2030.65 212.296 1998.66 250.851 1949.7 250.851ZM1942.5 112.147C1912.75 112.147 1892.59 134.065 1892.59 166.061C1892.59 198.697 1914.19 217.255 1941.54 217.255C1971.62 217.255 1990.18 193.738 1990.18 164.301C1990.18 135.984 1972.9 112.147 1942.5 112.147Z" fill="white"/>
<path d="M2076.09 194.698C2080.41 211.016 2096.41 218.535 2111.29 218.535C2122.96 218.535 2136.08 214.215 2136.08 201.257C2136.08 192.778 2128.24 187.818 2118.16 183.659L2094.01 174.54C2061.05 162.061 2052.57 143.504 2052.57 128.465C2052.57 97.7488 2078.65 78.551 2113.05 78.551C2134 78.551 2160.08 85.7502 2170.8 115.507L2138.48 127.185C2134.16 113.747 2122.16 110.227 2113.37 110.227C2102.97 110.227 2091.77 116.147 2091.77 127.505C2091.77 136.624 2099.93 141.264 2109.05 144.463L2133.52 153.262C2168.72 164.941 2175.6 186.219 2175.6 200.617C2175.6 233.253 2145.2 250.851 2110.97 250.851C2084.25 250.851 2053.85 239.813 2044.41 208.136L2076.09 194.698Z" fill="white"/>
<path d="M770.474 217.255C758.796 217.255 754.476 209.416 754.476 199.337V112.787H803.751V82.0704H754.476V37.9155H723.44L716.24 81.9105H688.563V112.627H714.321V193.578C714.321 239.012 741.358 250.691 768.875 250.691C785.353 250.691 797.831 246.052 806.311 238.692L791.752 212.136C791.752 212.136 780.393 217.255 770.474 217.255Z" fill="white"/>
<path d="M0 11.1987V247.172H41.7554V144.463H84.9506L119.507 109.907H41.7554V47.9945H143.664V11.1987H0Z" fill="white"/>
<path d="M1144.51 186.059C1138.43 204.617 1122.44 213.896 1104.04 213.896C1078.92 213.896 1060.2 193.738 1060.2 163.662C1060.2 133.585 1078.92 113.427 1104.04 113.427C1123.4 113.427 1139.87 122.706 1144.51 141.264H1187.07C1180.83 102.389 1147.39 76.6316 1104.04 76.6316C1055.88 76.6316 1020.05 112.467 1020.05 163.662C1020.05 214.856 1055.88 250.692 1104.04 250.692C1147.39 250.692 1181.15 225.095 1187.23 186.059H1144.51V186.059Z" fill="white"/>
<path d="M1355.03 247.172L1289.3 157.742L1346.73 86.87V81.9106H1302.26L1250.42 145.423V11.1987H1210.27V247.172H1250.42V167.181L1308.32 247.172H1355.03Z" fill="white"/>
</svg>
